<?xml version="1.0" encoding="utf-8"?>
<!-- Generator: $$$/GeneralStr/196=Adobe Illustrator 27.6.0, SVG Export Plug-In . SVG Version: 6.00 Build 0)  -->
<svg version="1.1" id="Livello_1" xmlns="http://www.w3.org/2000/svg" xmlns:xlink="http://www.w3.org/1999/xlink" x="0px" y="0px"
	 viewBox="0 0 161.4 161.4" style="enable-background:new 0 0 161.4 161.4;" xml:space="preserve">
<style type="text/css">
	.st0{enable-background:new    ;}
	.st1{fill:#AC1A1D;}
</style>
<g class="st0">
	<path class="st1" d="M43,110c-2.2-2.4-3.3-5.7-3.3-10V70.2c0-4.3,1.1-7.7,3.3-10c2.2-2.4,5.4-3.6,9.5-3.6c4.2,0,7.3,1.2,9.5,3.6
		c2.2,2.4,3.3,5.7,3.3,10v5.8h-8.2v-6.4c0-3.4-1.4-5.1-4.3-5.1c-2.9,0-4.3,1.7-4.3,5.1v30.9c0,3.4,1.4,5.1,4.3,5.1
		c2.9,0,4.3-1.7,4.3-5.1v-8.5h8.2v7.8c0,4.3-1.1,7.7-3.3,10c-2.2,2.4-5.4,3.6-9.5,3.6C48.3,113.5,45.2,112.3,43,110z"/>
	<path class="st1" d="M72,57.4h23v7.9H80.7v15.4H92v7.9H80.7v24.1H72V57.4z"/>
	<path class="st1" d="M103.7,109.9c-2.2-2.4-3.3-5.8-3.3-10.3V57.4h8.7v42.8c0,1.9,0.4,3.3,1.1,4.1c0.8,0.8,1.9,1.3,3.3,1.3
		c1.4,0,2.5-0.4,3.3-1.3s1.1-2.2,1.1-4.1V57.4h8.4v42.2c0,4.5-1.1,7.9-3.3,10.3c-2.2,2.4-5.4,3.6-9.6,3.6
		C109.2,113.5,105.9,112.3,103.7,109.9z"/>
</g>
<path class="st1" d="M80.7,4.1c42.2,0,76.6,34.4,76.6,76.6s-34.4,76.6-76.6,76.6S4.1,123,4.1,80.7S38.5,4.1,80.7,4.1 M80.7,0.1
	C36.2,0.1,0.1,36.2,0.1,80.7s36.1,80.6,80.6,80.6s80.6-36.1,80.6-80.6S125.2,0.1,80.7,0.1C80.7,0.1,80.7,0.1,80.7,0.1z"/>
</svg>
