<?xml version="1.0" encoding="UTF-8"?>
<svg id="Livello_1" data-name="Livello 1" xmlns="http://www.w3.org/2000/svg" xmlns:xlink="http://www.w3.org/1999/xlink" viewBox="0 0 161.45 161.45">
  <defs>
    <style>
      .cls-1 {
        clip-path: url(#clippath);
      }

      .cls-2, .cls-3 {
        fill: none;
      }

      .cls-2, .cls-4, .cls-5, .cls-6 {
        stroke-width: 0px;
      }

      .cls-3 {
        stroke: #fff;
        stroke-linecap: round;
        stroke-linejoin: round;
        stroke-width: 4px;
      }

      .cls-4 {
        fill: #b71918;
      }

      .cls-5 {
        fill: #691103;
      }

      .cls-6 {
        fill: #fff;
      }
    </style>
    <clipPath id="clippath">
      <circle class="cls-2" cx="57.08" cy="94.7" r="61.04"/>
    </clipPath>
  </defs>
  <rect class="cls-4" y="-.19" width="161.45" height="161.45"/>
  <g>
    <polygon class="cls-3" points="62.41 124.66 25.27 111.07 25.27 36.79 62.41 50.38 62.41 124.66"/>
    <polygon class="cls-3" points="62.41 124.66 25.27 111.07 25.27 36.79 62.41 50.38 62.41 124.66"/>
    <polygon class="cls-3" points="62.41 124.66 99.55 111.07 99.55 36.79 62.41 50.38 62.41 124.66"/>
    <polygon class="cls-3" points="136.69 124.66 99.55 111.07 99.55 36.79 136.69 50.38 136.69 124.66"/>
  </g>
  <g class="cls-1">
    <g>
      <path class="cls-6" d="m2.9,75.72l3.62,1.01,3.62-.5s.95,1.91,1.12,1.86,2.47,0,2.47,0l13.35-5.78,8.07-3.17s12.19,1.32,12.47,1.37,15.65.44,15.65.44c0,0,14.33.28,14.33.47s-.22,1.77-.22,1.77l-1.7,2.7s-27.24,4.34-27.08,4.45,4.23,5.93,4.23,5.93l3.54,6.32.25,2.69-5,1.98-10.54,3.13-25.7-5.44-3.95,7.41-1.7,3.57H2.36L-.39,77.53l3.28-1.81Z"/>
      <path class="cls-5" d="m53.51,71.18c3.4-.41,3.3,1.28,4.57,1.08.96-.52.17-1.01,3.46-.72,6.67.59,8-.51,8.61.51.82,1.37.8,2.23,5.13,1.88.36-.03.46-.04.68-.07.53-.12.56.19.04.57-.42.32-3.95,1.97-8.08,1.34-2.34-.36-1.12.52-5,.52-1.7-.11-2.76-.11-3.29-.22-1.7.63-5,.67-6.07.42-1.3-.32-1.91-.73-3.08-.11-1.17.62-3.73,1.47-7.55,1.03-4.47-.52-4.23-1.35-4.68-1.03-1.04.77,1.09,2.18-1.12,3.81-1.13.84-2.34-2.52-3.46-2.47-.67.09-.8.68-.48,1.39.15.34,1.48,2.24.37,3.04-1.81,1.29-5.05-2.58-7.55-.98-.58.44.04,1.06.74.98,1.21-.14,3.25.99,4.09,1.7,1.12.98,4.31,2.47,5.48,2.94,4.15,1.65,5.52.42,6.27,1.44.64.77,1.93-.39,3.4-.62,2.78-.44,9.17,1.78,8.56,3.15-.23.45-.67.42-1.24.31-.6-.1-.82-.1-1.62.01-1.81.27-1.64.99-2.62.86-1.28-.17-.13-.65-4.52-.54-1.27,0-1.96-.08-2.82.44-.42-.34-1.43-.8-2.12-.21-1.59-.31-1.03-.49-3.73.1-3.63.8-4.36-.64-6.04-1.44-.45-.2-.75-.36-1.63-.23-6.7.79-3.8.77-13.09.22-3.22-.59-4.46-2.27-4.33-6.5.26-4.79,1.32-4.12,4.04-5.26,11.01-4.74,18.4-8.81,21.26-8.61,8.14.11,6.65,1.55,17.39,1.24m22.97.64c.07,0,.17.11.16.14.15,1.64-2.98,1.24-4.22.99-.74-.14-1.3-1.28-.56-1.54l4.62.41Zm-20.15,22.91c-.35.44-1.78.46-2.68.67-.96.22-3.93.54-3.49-.98.64-1.34.71-1.52,2.05-1.8,1.17-.25,4.58.72,4.12,2.11m-46.25,8.86c-.22.86-.38,1.67-1.75,1.73-5.22.39-4.41-.75-4.74-1.32-.96-7.26-.85-21.08-.11-24.64.64-3.04,1.87-2.73,5.85-2.52,1.22.06.51,1.14.43,2-.32,3.5-.53,5.36-.43,11.85.11,6.49,1.05,11.65.75,12.88m29.72-34.94c-2.18-.19-3.89-1.14-5.48-.37-2.43,1.17-10.85,4.74-19.89,9.07-.19.09-.99.53-1.49-.62-1.01-1.82-1.6-1.29-5.16-1.18-2.55-.1-.66-1.99-3.45-1.93-4.31.09-6,.44-12.29.31-2.55-.05-3.25-.14-3.29,1.61v37.08c0,.57.26,1.14,1.06,1.14,2.77-.1,6.65-.16,12.5.05,2.71.1,3.35-.98,4.25-5.58.39-2,1.97-.93,4.2-1.54,2.02-.77,2.4-5.47,2.4-5.47.02-1.06.61-1.08.96-.93,7.92,3.25,16.3-1.67,16.48-.83,1.46,3.88,5.45,3.58,5.96,2.58-.11,1.75,2.66,3.19,3.51,2.78,3.06-1.57,3.11-2.71,5.24-3.43,3.88-1.62,3.06-3.39,6.78-3.58,2.71-.14,3.61-.58,4.25-1.13,2.82-2.68.37-6.24-1.33-7.42.64-2.78-3.51-6.17-4.47-8.49,1.28-.03,3.22-.31,6.22-1.3,1.57-.52,1.19.24,3.93-.03,3.7-.32,5.11-.69,6.28-1.21.68-.3,4.25-.23,6.11-.85,5.9-.83,4.97-5.98,4.84-6.47-.05-.21-.11-.21-1.21-.21-1.49.11-4.16-.65-6.34-.3-.85.1-2.18-.26-4.25,0-2.58-.44-4.47.23-7.48-.81-.45-.13-.35.29-1.35.19-.53-.06-.46-.47-2.03-.28-1.79.2-4.08.02-6.26.02-2.18,0-3.88-.43-9.2-.87"/>
    </g>
  </g>
</svg>