<?xml version="1.0" encoding="UTF-8"?>
<svg id="Livello_1" data-name="Livello 1" xmlns="http://www.w3.org/2000/svg" xmlns:xlink="http://www.w3.org/1999/xlink" viewBox="0 0 161.45 161.45">
  <defs>
    <style>
      .cls-1, .cls-2 {
        font-family: Lora-Italic, Lora;
        font-style: italic;
      }

      .cls-1, .cls-3 {
        letter-spacing: .05em;
      }

      .cls-4, .cls-5 {
        font-family: Oswald-Regular, Oswald;
      }

      .cls-6 {
        clip-path: url(#clippath);
      }

      .cls-7 {
        fill: none;
      }

      .cls-7, .cls-8, .cls-9 {
        stroke-width: 0px;
      }

      .cls-10 {
        font-size: 31.7px;
        font-variation-settings: 'wght' 400;
      }

      .cls-10, .cls-9 {
        fill: #fff;
      }

      .cls-5 {
        letter-spacing: .05em;
      }

      .cls-8 {
        fill: #ad181b;
      }
    </style>
    <clipPath id="clippath">
      <circle class="cls-7" cx="82.69" cy="36.75" r="36.75"/>
    </clipPath>
  </defs>
  <rect class="cls-8" width="161.45" height="161.45"/>
  <text class="cls-10" transform="translate(19.38 112.48)"><tspan class="cls-3"><tspan class="cls-2" x="0" y="0">il </tspan><tspan class="cls-4" x="32.52" y="0">CORSO</tspan></tspan><tspan class="cls-1" x="-10.16" y="31.7">in </tspan><tspan class="cls-5" x="32.89" y="31.7">SINTESI</tspan></text>
  <g>
    <circle class="cls-9" cx="82.69" cy="36.75" r="30.65"/>
    <g class="cls-6">
      <g>
        <path class="cls-9" d="m94.13,4.13l-.61,2.18.3,2.18s-1.15.57-1.12.67,0,1.49,0,1.49l3.48,8.04,1.91,4.86s-.79,7.34-.83,7.51-.26,9.42-.26,9.42c0,0-.17,8.63-.28,8.63s-1.07-.13-1.07-.13l-1.63-1.03s-2.61-16.4-2.68-16.3-3.57,2.55-3.57,2.55l-3.8,2.13-1.62.15-1.19-3.01-1.88-6.35,3.27-15.48-4.46-2.38-2.15-1.03V3.81l17.1-1.65,1.09,1.98Z"/>
        <path class="cls-8" d="m96.86,34.61c.25,2.05-.77,1.99-.65,2.75.31.58.61.1.43,2.08-.36,4.02.31,4.82-.31,5.19-.83.49-1.35.48-1.13,3.09.02.21.02.28.04.41.08.32-.11.34-.34.02-.19-.26-1.19-2.38-.81-4.87.22-1.41-.31-.67-.31-3.01.07-1.02.07-1.66.13-1.98-.38-1.02-.4-3.01-.25-3.65.19-.78.44-1.15.07-1.86-.37-.7-.89-2.24-.62-4.54.31-2.69.81-2.55.62-2.82-.46-.63-1.31.65-2.3-.67-.51-.68,1.52-1.41,1.49-2.08-.05-.4-.41-.48-.84-.29-.2.09-1.35.89-1.83.22-.78-1.09,1.55-3.04.59-4.55-.26-.35-.64.02-.59.45.08.73-.59,1.95-1.03,2.47-.59.67-1.49,2.59-1.77,3.3-.99,2.5-.25,3.33-.87,3.78-.46.38.24,1.16.37,2.05.27,1.67-1.07,5.52-1.89,5.16-.27-.14-.25-.4-.19-.75.06-.36.06-.5,0-.98-.16-1.09-.59-.99-.52-1.57.11-.77.39-.08.33-2.72,0-.77.05-1.18-.26-1.7.21-.26.48-.86.13-1.28.19-.96.3-.62-.06-2.24-.48-2.19.38-2.62.87-3.64.12-.27.21-.45.14-.98-.47-4.03-.46-2.29-.13-7.88.36-1.94,1.37-2.69,3.91-2.61,2.88.16,2.48.8,3.17,2.43,2.85,6.63,5.3,11.08,5.18,12.8-.06,4.9-.93,4-.75,10.47m-.39,13.83s-.06.1-.08.1c-.99.09-.75-1.79-.6-2.54.08-.45.77-.78.93-.34l-.25,2.78Zm-13.8-12.13c-.26-.21-.28-1.07-.4-1.62-.13-.58-.33-2.37.59-2.1.81.39.92.43,1.09,1.23.15.71-.43,2.76-1.27,2.48m-5.33-27.85c-.52-.13-1-.23-1.04-1.05-.23-3.15.45-2.66.8-2.86,4.37-.58,12.69-.51,14.83-.07,1.83.39,1.64,1.13,1.51,3.52-.04.74-.69.31-1.21.26-2.11-.19-3.23-.32-7.14-.26-3.91.07-7.01.64-7.76.45m21.03,17.89c.11-1.31.68-2.34.22-3.3-.71-1.46-2.85-6.53-5.46-11.97-.05-.11-.32-.59.37-.9,1.09-.61.78-.96.71-3.11.06-1.53,1.2-.4,1.16-2.08-.05-2.59-.26-3.61-.19-7.4.03-1.54.08-1.95-.97-1.98h-22.33c-.34,0-.68.16-.68.64.06,1.67.09,4-.03,7.53-.06,1.63.59,2.01,3.36,2.56,1.2.24.56,1.18.93,2.53.46,1.22,3.29,1.44,3.29,1.44.64.01.65.37.56.58-1.95,4.77,1.01,9.81.5,9.93-2.34.88-2.16,3.28-1.55,3.59-1.05-.07-1.92,1.6-1.68,2.11.94,1.84,1.63,1.87,2.06,3.15.98,2.34,2.04,1.84,2.16,4.08.08,1.63.35,2.18.68,2.56,1.61,1.7,3.75.22,4.47-.8,1.68.38,3.71-2.11,5.11-2.69.02.77.19,1.94.78,3.75.31.94-.14.72.02,2.37.19,2.23.42,3.08.73,3.78.18.41.14,2.56.51,3.68.5,3.56,3.6,2.99,3.9,2.91.12-.03.12-.07.12-.73-.06-.9.39-2.5.18-3.82-.06-.51.16-1.31,0-2.56.27-1.56-.14-2.69.49-4.5.08-.27-.17-.21-.12-.81.03-.32.28-.28.17-1.22-.12-1.08-.01-2.46-.01-3.77s.26-2.34.52-5.54"/>
      </g>
    </g>
  </g>
</svg>