<?xml version="1.0" encoding="UTF-8"?>
<svg id="Livello_1" data-name="Livello 1" xmlns="http://www.w3.org/2000/svg" viewBox="0 0 161.45 161.45">
  <defs>
    <style>
      .cls-1 {
        fill: #ac1a1d;
        stroke-width: 0px;
      }
    </style>
  </defs>
  <path class="cls-1" d="m80.73,4.11c42.25,0,76.62,34.37,76.62,76.62s-34.37,76.62-76.62,76.62S4.11,122.97,4.11,80.73,38.48,4.11,80.73,4.11m0-4C36.2.11.11,36.2.11,80.73s36.09,80.62,80.62,80.62,80.62-36.09,80.62-80.62S125.25.11,80.73.11h0Z"/>
  <path class="cls-1" d="m118.75,47.17h-15.66v-4.47h-4.47v4.47h-35.79v-4.47h-4.47v4.47h-15.66c-3.71,0-6.71,3-6.71,6.71v58.16c0,3.71,3,6.71,6.71,6.71h76.05c3.71,0,6.71-3,6.71-6.71v-58.16c0-3.71-3-6.71-6.71-6.71Zm2.24,64.87c0,1.24-1,2.24-2.24,2.24H42.7c-1.24,0-2.24-1-2.24-2.24v-58.16c0-1.24,1-2.24,2.24-2.24h15.66v4.47h4.47v-4.47h35.79v4.47h4.47v-4.47h15.66c1.24,0,2.24,1,2.24,2.24v58.16Zm-76.05-46.97h71.58v4.47H44.94v-4.47Z"/>
</svg>