<?xml version="1.0" encoding="UTF-8"?>
<svg id="Livello_1" data-name="Livello 1" xmlns="http://www.w3.org/2000/svg" viewBox="0 0 161.45 161.45">
  <defs>
    <style>
      .cls-1 {
        fill: #ac1a1d;
        stroke-width: 0px;
      }
    </style>
  </defs>
  <path class="cls-1" d="m80.73,4.11c42.25,0,76.62,34.37,76.62,76.62s-34.37,76.62-76.62,76.62S4.11,122.97,4.11,80.73,38.48,4.11,80.73,4.11m0-4C36.2.11.11,36.2.11,80.73s36.09,80.62,80.62,80.62,80.62-36.09,80.62-80.62S125.25.11,80.73.11h0Z"/>
  <path class="cls-1" d="m112.7,70.07h0c.07,8.85-4.7,17.02-12.43,21.31l-7.1,3.91c-3.26,2.12-5.25,5.71-5.33,9.59,0,6.28-5.09,11.37-11.37,11.37h-2.13c-4.7-.2-8.86-3.11-10.66-7.46l3.2-1.78c1.04,3.28,4.03,5.55,7.46,5.68h2.13c2.17.04,4.24-.87,5.68-2.49,1.43-1.4,2.2-3.33,2.13-5.33-.05-5.12,2.67-9.87,7.1-12.43l7.1-4.26c6.54-3.69,10.61-10.6,10.66-18.12,0-11.77-9.54-21.31-21.31-21.31h0c-6.71,0-13.03,3.16-17.05,8.53l-2.84-2.13c4.7-6.26,12.07-9.95,19.89-9.95h0c13.73,0,24.87,11.13,24.87,24.87Zm-44.4,10.66c0-10.79-8.75-19.54-19.54-19.54v3.55c8.83,0,15.99,7.16,15.99,15.99s-7.16,15.99-15.99,15.99v3.55c10.79,0,19.54-8.75,19.54-19.54Zm-8.88,0c.2-5.69-4.25-10.46-9.93-10.66-.24,0-.48,0-.72,0v3.55c3.92,0,7.1,3.18,7.1,7.1s-3.18,7.1-7.1,7.1v3.55c5.69.2,10.46-4.25,10.66-9.93,0-.24,0-.48,0-.72Zm17.76,0c0-15.69-12.72-28.42-28.42-28.42v3.55c13.73,0,24.87,11.13,24.87,24.87s-11.13,24.87-24.87,24.87v3.55c15.69,0,28.42-12.72,28.42-28.42Zm20.96,1.07c2.86-3.08,4.39-7.17,4.26-11.37.13-4.2-1.4-8.29-4.26-11.37-2.96-3.12-7.06-4.91-11.37-4.97-4.33.27-8.39,2.17-11.37,5.33l-1.07,1.07.71,1.07c2.19,3.23,3.76,6.85,4.62,10.66v1.42h1.42c2.94,0,5.33,2.39,5.33,5.33s-2.39,5.33-5.33,5.33v3.55c4.9,0,8.88-3.98,8.88-8.88-.05-4.24-2.98-7.9-7.1-8.88-.78-3.27-2.1-6.4-3.91-9.24,2.21-1.85,4.94-2.97,7.82-3.2,3.19.05,6.25,1.32,8.53,3.55,2.41,2.45,3.7,5.8,3.55,9.24.14,3.44-1.14,6.78-3.55,9.24l2.84,2.13Z"/>
</svg>